<mxfile host="Electron" modified="2024-12-04T10:51:46.013Z" agent="Mozilla/5.0 (Windows NT 10.0; Win64; x64) AppleWebKit/537.36 (KHTML, like Gecko) draw.io/24.2.5 Chrome/120.0.6099.109 Electron/28.1.0 Safari/537.36" etag="b5zS0x-2QvGgYbQ_KKLG" version="24.2.5" type="device">
  <diagram name="Page-1" id="DOGJ0gct13zQMqppkbyt">
    <mxGraphModel dx="1050" dy="669" grid="1" gridSize="10" guides="1" tooltips="1" connect="1" arrows="1" fold="1" page="1" pageScale="1" pageWidth="1654" pageHeight="1169" math="0" shadow="0">
      <root>
        <mxCell id="0" />
        <mxCell id="1" parent="0" />
        <mxCell id="GClDfJiHPfRDOWdaIqFy-6" style="edgeStyle=orthogonalEdgeStyle;rounded=0;orthogonalLoop=1;jettySize=auto;html=1;entryX=0;entryY=0.5;entryDx=0;entryDy=0;" edge="1" parent="1" source="GClDfJiHPfRDOWdaIqFy-1" target="GClDfJiHPfRDOWdaIqFy-2">
          <mxGeometry relative="1" as="geometry" />
        </mxCell>
        <mxCell id="GClDfJiHPfRDOWdaIqFy-1" value="Project Planning" style="rounded=0;whiteSpace=wrap;html=1;" vertex="1" parent="1">
          <mxGeometry x="480" y="320" width="120" height="60" as="geometry" />
        </mxCell>
        <mxCell id="GClDfJiHPfRDOWdaIqFy-7" style="edgeStyle=orthogonalEdgeStyle;rounded=0;orthogonalLoop=1;jettySize=auto;html=1;entryX=0;entryY=0.5;entryDx=0;entryDy=0;" edge="1" parent="1" source="GClDfJiHPfRDOWdaIqFy-2" target="GClDfJiHPfRDOWdaIqFy-3">
          <mxGeometry relative="1" as="geometry" />
        </mxCell>
        <mxCell id="GClDfJiHPfRDOWdaIqFy-2" value="Requirement&lt;div&gt;Analysis&lt;/div&gt;" style="rounded=0;whiteSpace=wrap;html=1;" vertex="1" parent="1">
          <mxGeometry x="680" y="320" width="120" height="60" as="geometry" />
        </mxCell>
        <mxCell id="GClDfJiHPfRDOWdaIqFy-10" style="edgeStyle=orthogonalEdgeStyle;rounded=0;orthogonalLoop=1;jettySize=auto;html=1;exitX=0.25;exitY=1;exitDx=0;exitDy=0;entryX=0.25;entryY=0;entryDx=0;entryDy=0;" edge="1" parent="1" source="GClDfJiHPfRDOWdaIqFy-3" target="GClDfJiHPfRDOWdaIqFy-4">
          <mxGeometry relative="1" as="geometry" />
        </mxCell>
        <mxCell id="GClDfJiHPfRDOWdaIqFy-12" style="edgeStyle=orthogonalEdgeStyle;rounded=0;orthogonalLoop=1;jettySize=auto;html=1;entryX=0;entryY=0.5;entryDx=0;entryDy=0;" edge="1" parent="1" source="GClDfJiHPfRDOWdaIqFy-3" target="GClDfJiHPfRDOWdaIqFy-5">
          <mxGeometry relative="1" as="geometry" />
        </mxCell>
        <mxCell id="GClDfJiHPfRDOWdaIqFy-3" value="Sprint-Base&lt;div&gt;Development&lt;/div&gt;" style="rounded=0;whiteSpace=wrap;html=1;" vertex="1" parent="1">
          <mxGeometry x="880" y="320" width="120" height="60" as="geometry" />
        </mxCell>
        <mxCell id="GClDfJiHPfRDOWdaIqFy-11" style="edgeStyle=orthogonalEdgeStyle;rounded=0;orthogonalLoop=1;jettySize=auto;html=1;exitX=0.75;exitY=0;exitDx=0;exitDy=0;entryX=0.75;entryY=1;entryDx=0;entryDy=0;" edge="1" parent="1" source="GClDfJiHPfRDOWdaIqFy-4" target="GClDfJiHPfRDOWdaIqFy-3">
          <mxGeometry relative="1" as="geometry" />
        </mxCell>
        <mxCell id="GClDfJiHPfRDOWdaIqFy-4" value="Prototyping" style="rounded=0;whiteSpace=wrap;html=1;" vertex="1" parent="1">
          <mxGeometry x="880" y="400" width="120" height="60" as="geometry" />
        </mxCell>
        <mxCell id="GClDfJiHPfRDOWdaIqFy-5" value="Testing" style="rounded=0;whiteSpace=wrap;html=1;" vertex="1" parent="1">
          <mxGeometry x="1080" y="320" width="120" height="60" as="geometry" />
        </mxCell>
      </root>
    </mxGraphModel>
  </diagram>
</mxfile>
